<svg width="100" height="100" viewBox="0 0 100 100" fill="none" xmlns="http://www.w3.org/2000/svg">
<path d="M96.2828 38.9128C96.3557 38.6744 96.3819 38.4241 96.3599 38.1757L95.0485 27.65C94.9435 25.9233 94.7259 24.2054 94.397 22.5071C94.2856 22.06 94.0815 21.6414 93.798 21.2781C93.5145 20.9149 93.158 20.6153 92.7513 20.3986C91.7551 20.0034 90.6672 19.8994 89.6142 20.0986L69.0428 21.4871C55.1399 22.4128 41.1942 23.2614 27.2743 24.3928C19.7228 25.0271 12.12 25.9614 4.88571 28.3271C4.3438 28.4771 3.86596 28.8005 3.52538 29.2479C3.1848 29.6953 3.00026 30.242 3 30.8043C3.27429 33.8785 3.54571 36.95 3.81429 40.0185C3.85241 40.4321 3.97184 40.8341 4.16571 41.2014C4.16754 42.2469 4.30879 43.2875 4.58571 44.2957C4.76768 44.9471 5.02062 45.5766 5.34 46.1728C5.2986 46.6858 5.41206 47.1993 5.66571 47.6471C7.57714 51.0757 10.4828 53.6471 13.0971 56.4928C15.7114 59.3385 18.3171 62.2957 21.0771 65.0642C26.6485 70.6099 33.3857 76.3956 41.2285 78.2471C45.36 79.2156 49.8 79.0528 53.9999 78.8299C58.1999 78.6071 62.3142 77.7756 65.7771 75.2471C68.8542 73.0014 71.6056 70.2842 74.4599 67.7728C77.1771 65.3899 79.8856 62.9985 82.4742 60.4785C88.3542 54.7442 93.4285 48.2728 96.377 40.5414C96.4703 40.2773 96.51 39.9972 96.4938 39.7176C96.4776 39.438 96.4058 39.1644 96.2828 38.9128ZM69.1456 49.9014C68.9162 49.5644 68.6255 49.2736 68.2885 49.0442C68.2199 49.0442 67.7656 48.65 67.7656 48.6671C67.5771 48.5042 67.3885 48.3414 67.2085 48.17C67.0285 47.9985 66.7714 47.7328 66.5742 47.51C66.5228 47.4585 66.1971 47.0385 66.1628 47.0042C65.8497 46.5529 65.5635 46.0835 65.3056 45.5985C65.1599 45.3328 65.0228 45.0585 64.8942 44.7414C64.8428 44.6385 64.7999 44.5442 64.7571 44.4414C64.3032 43.1674 63.9591 41.8569 63.7285 40.5242C63.6857 40.2071 63.6771 40.1728 63.7285 40.4128L63.6771 39.8814C63.6771 39.53 63.6171 39.1785 63.5999 38.8185C63.5571 38.1157 63.5485 37.4042 63.5571 36.6928C63.5652 36.6216 63.5652 36.5497 63.5571 36.4785C66.7628 36.2128 69.9685 35.93 73.1742 35.6728C79.0485 35.1928 84.9256 34.7414 90.8056 34.3185C90.9342 35.33 91.0542 36.3414 91.1828 37.3528C88.613 37.591 86.1012 38.2573 83.7513 39.3242C80.6306 40.686 77.6602 42.3694 74.8885 44.3471C72.7052 45.8985 70.7691 47.7711 69.1456 49.9014ZM72.4885 26.39L80.7085 25.8328C80.7068 27.1993 80.7869 28.5646 80.9485 29.9214L72.5914 30.59C72.4799 29.1928 72.4628 27.8214 72.4885 26.39ZM88.7742 25.2928L89.6313 25.2328C89.6913 25.7557 89.7599 26.2785 89.8199 26.81C89.9228 27.6157 90.0256 28.43 90.1199 29.2357L84.7971 29.63C84.6443 28.2841 84.5727 26.9302 84.5828 25.5757L86.2971 25.4557L88.7742 25.2928ZM38.2457 28.7214C48.3714 27.99 58.4942 27.29 68.6142 26.6214C68.6142 27.95 68.6142 29.2785 68.7256 30.5985C68.7256 30.6928 68.7256 30.7871 68.7256 30.8814L58.1742 31.7385C47.8885 32.5957 37.5171 33.3414 27.2314 34.4814C27.2918 34.1671 27.2918 33.8442 27.2314 33.53C27.2314 33.2814 27.1543 33.0328 27.12 32.7843C26.9818 31.7006 26.8988 30.6106 26.8714 29.5185C30.7114 29.2528 34.5 29.0214 38.2542 28.7471L38.2457 28.7214ZM36.7971 43.85L36.5914 44.3214C36.3 44.9642 35.9914 45.5985 35.6571 46.2157C35.0133 47.4048 34.2917 48.5501 33.4971 49.6442L33.1285 50.15L33.0771 50.2185C32.8714 50.4757 32.6571 50.7328 32.4428 50.9814C32.04 51.4614 31.5857 51.9242 31.1657 52.3785C28.2376 49.519 24.7301 47.321 20.88 45.9328C17.539 44.9856 14.0562 44.6402 10.5943 44.9128C10.292 44.4946 10.028 44.0499 9.80571 43.5842C9.65349 43.1952 9.52469 42.7973 9.41999 42.3928C13.9628 41.8957 18.4286 40.7985 22.9543 40.19C28.0971 39.5042 33.24 39.1185 38.3828 38.6728C38.0933 40.049 37.7096 41.4036 37.2342 42.7271C37.1228 43.0357 37.0028 43.3442 36.8828 43.6528L36.7971 43.85ZM23.58 34.61C23.5996 34.737 23.6432 34.8592 23.7085 34.97C21.1086 35.2957 18.5371 35.6928 15.9943 36.1614C16.0093 35.949 15.9949 35.7355 15.9514 35.5271C15.8143 34.9357 15.6943 34.3443 15.5914 33.7443C15.5486 33.47 15.5228 33.1871 15.4628 32.8871C15.4628 32.9985 15.4628 33.0671 15.5057 33.1014C15.5486 33.1357 15.5057 32.9043 15.4628 32.8443L15.4114 32.3557C15.3686 31.9185 15.3428 31.4985 15.3171 31.0443C17.8886 30.5643 20.52 30.1871 23.1428 29.9214C23.1933 31.4917 23.3393 33.0574 23.58 34.61ZM12.1886 36.5557C12.2085 36.6452 12.2402 36.7317 12.2828 36.8128C11.1 37.01 9.90856 37.19 8.71714 37.3185L8.30571 32.69C9.35999 32.39 10.4143 32.1157 11.4771 31.8328C11.6009 33.4221 11.8387 35.0005 12.1886 36.5557ZM17.7257 53.9899C16.1228 52.2071 14.34 50.5614 12.7628 48.7442C14.6988 48.6962 16.6333 48.8862 18.5228 49.31C21.523 50.1205 24.2952 51.6136 26.6228 53.6728C31.4137 57.5507 35.477 62.2495 38.6228 67.5499C39.587 69.2527 40.3932 71.0402 41.0314 72.8899C35.4942 71.1756 30.5743 67.0099 26.46 63.1528C23.4085 60.2471 20.5543 57.1271 17.7257 53.9899ZM61.5942 71.1328L61.4657 71.9385L61.2771 72.0499C59.7465 72.8351 58.0846 73.3319 56.3742 73.5156C54.5807 73.7084 52.778 73.8028 50.9742 73.7985C49.0885 73.7985 47.2028 73.8585 45.3171 73.7128C43.8085 68.0556 40.6714 62.9642 36.9085 58.4899C36.24 57.6928 35.5371 56.8785 34.8085 56.0728C39.0915 51.6345 42.0588 46.0947 43.38 40.07C43.5062 39.4606 43.4342 38.8268 43.1742 38.2614L58.4228 36.9328C58.4228 43.2757 60.2571 49.7899 65.7685 53.4928C66.0258 53.665 66.3189 53.7764 66.6256 53.8185C65.3944 56.116 64.4117 58.5383 63.6942 61.0442C62.7845 64.3556 62.0916 67.7227 61.6199 71.1242L61.5942 71.1328ZM65.9056 68.5528C66.5851 63.9711 67.9975 59.5286 70.0885 55.3957C71.5208 52.6947 73.4861 50.3124 75.8656 48.3928C78.3615 46.4919 81.0438 44.8492 83.8713 43.49C85.953 42.4019 88.2006 41.6662 90.5228 41.3128C85.3713 52.5671 74.9399 60.4528 65.9056 68.5099V68.5528Z" fill="black"/>
</svg>
